<?xml version="1.0" encoding="utf-8"?>
<!-- Generator: Adobe Illustrator 22.0.1, SVG Export Plug-In . SVG Version: 6.00 Build 0)  -->
<svg version="1.1" id="hamb_1" xmlns="http://www.w3.org/2000/svg" xmlns:xlink="http://www.w3.org/1999/xlink" x="0px" y="0px"
	 viewBox="0 0 25 25" style="enable-background:new 0 0 25 25;" xml:space="preserve">
<g>
	<path d="M6,8.1c1.1,0,2-0.9,2-2s-0.9-2-2-2S4,5,4,6.1S4.9,8.1,6,8.1z M12,20.1c1.1,0,2-0.9,2-2s-0.9-2-2-2s-2,0.9-2,2
		S10.9,20.1,12,20.1z M6,20.1c1.1,0,2-0.9,2-2s-0.9-2-2-2s-2,0.9-2,2S4.9,20.1,6,20.1z M6,14.1c1.1,0,2-0.9,2-2s-0.9-2-2-2
		s-2,0.9-2,2S4.9,14.1,6,14.1z M12,14.1c1.1,0,2-0.9,2-2s-0.9-2-2-2s-2,0.9-2,2S10.9,14.1,12,14.1z M16,6.1c0,1.1,0.9,2,2,2
		c1.1,0,2-0.9,2-2s-0.9-2-2-2C16.9,4.1,16,5,16,6.1z M12,8.1c1.1,0,2-0.9,2-2s-0.9-2-2-2s-2,0.9-2,2S10.9,8.1,12,8.1z M18,14.1
		c1.1,0,2-0.9,2-2s-0.9-2-2-2c-1.1,0-2,0.9-2,2S16.9,14.1,18,14.1z M18,20.1c1.1,0,2-0.9,2-2s-0.9-2-2-2c-1.1,0-2,0.9-2,2
		S16.9,20.1,18,20.1z"/>
</g>
</svg>
